<?xml version="1.0" standalone="no"?>
<!DOCTYPE svg PUBLIC "-//W3C//DTD SVG 20010904//EN"
 "http://www.w3.org/TR/2001/REC-SVG-20010904/DTD/svg10.dtd">
<svg version="1.0" xmlns="http://www.w3.org/2000/svg"
 width="300.000000pt" height="300.000000pt" viewBox="0 0 300.000000 300.000000"
 preserveAspectRatio="xMidYMid meet">
<metadata>
Created by potrace 1.10, written by Peter Selinger 2001-2011
</metadata>
<g transform="translate(0.000000,300.000000) scale(0.050000,-0.050000)"
fill="#000000" stroke="none">
<path d="M4153 5500 c-31 -10 -69 -13 -83 -7 -15 6 -44 1 -64 -11 -20 -11 -25
-21 -11 -21 46 -2 26 -34 -45 -72 -38 -21 -70 -46 -70 -55 0 -9 -7 -12 -16 -6
-9 5 -32 -8 -51 -30 -19 -22 -43 -34 -54 -27 -11 6 -18 5 -15 -5 7 -24 -45
-111 -59 -98 -13 14 -77 -71 -70 -93 3 -8 -4 -15 -15 -15 -11 0 -20 10 -20 22
0 16 -9 16 -29 -2 -31 -25 -104 20 -77 47 6 6 -8 8 -31 4 -24 -5 -43 -2 -43 7
0 8 -11 16 -25 17 -66 6 -105 22 -100 43 3 12 -2 23 -10 24 -42 5 -187 19
-285 26 -60 5 -112 11 -115 13 -3 2 -12 5 -20 7 -8 1 -24 8 -35 16 -23 14 -96
-32 -78 -49 6 -7 -4 -10 -24 -7 -20 3 -39 16 -44 29 -9 28 -84 31 -84 4 0 -11
-13 -15 -28 -9 -37 14 -117 -28 -101 -53 6 -10 -9 -19 -35 -19 -25 0 -37 7
-26 15 11 8 22 29 25 45 4 21 -4 18 -25 -9 -17 -21 -55 -42 -85 -46 -30 -4
-64 -16 -76 -26 -13 -10 -28 -13 -35 -6 -7 7 -25 2 -40 -10 -15 -12 -34 -17
-41 -9 -7 7 -13 1 -13 -14 0 -15 -6 -21 -13 -14 -7 7 -35 -5 -62 -27 -28 -21
-66 -39 -85 -39 -18 0 -56 -18 -82 -40 -26 -21 -57 -47 -68 -56 -11 -9 -36
-22 -55 -29 -19 -8 -35 -29 -35 -48 0 -31 -3 -30 -31 4 -18 22 -26 27 -19 13
18 -34 -49 -109 -84 -95 -14 5 -26 -2 -26 -16 0 -13 -27 -47 -59 -74 -33 -27
-60 -56 -60 -64 -1 -17 -48 -76 -122 -154 -28 -30 -47 -66 -43 -80 5 -15 0
-21 -12 -13 -12 7 -24 -7 -28 -33 -3 -25 -19 -45 -36 -45 -18 -1 -29 -18 -28
-45 0 -25 -7 -45 -17 -45 -9 0 -12 -9 -5 -20 7 -11 4 -20 -6 -20 -11 0 -25
-28 -31 -61 -7 -36 -21 -56 -34 -49 -13 9 -16 -4 -8 -38 9 -36 4 -55 -17 -63
-18 -7 -26 -27 -20 -50 6 -22 -1 -43 -17 -49 -20 -8 -26 -36 -20 -93 5 -57 1
-78 -14 -69 -14 9 -18 3 -12 -14 16 -41 -71 -135 -131 -142 -72 -8 -180 -53
-180 -74 0 -10 -7 -16 -15 -13 -21 6 -123 -100 -110 -114 7 -6 -5 -11 -25 -11
-20 0 -31 -6 -24 -13 8 -7 4 -25 -7 -38 -12 -14 -21 -89 -21 -167 -1 -94 -8
-140 -23 -137 -28 6 -32 -36 -11 -114 10 -38 8 -64 -6 -72 -13 -8 -16 -33 -9
-57 8 -23 22 -37 33 -31 10 7 13 22 5 35 -8 14 -6 17 5 8 25 -24 28 -254 2
-254 -11 0 -15 -6 -8 -12 7 -7 -14 -39 -47 -72 -32 -32 -60 -70 -61 -83 -2
-12 -6 -64 -9 -115 -4 -50 -9 -100 -12 -110 -3 -10 2 -94 11 -188 14 -165 36
-223 115 -308 21 -22 37 -47 37 -56 0 -9 14 -16 30 -16 17 0 28 -11 25 -25 -3
-14 13 -25 34 -25 49 0 131 -245 90 -270 -18 -12 -18 -19 1 -30 19 -11 18 -19
-3 -32 -15 -10 -18 -18 -6 -18 14 0 19 -83 15 -241 -5 -199 -1 -242 24 -252
16 -6 30 -24 30 -39 0 -15 9 -28 20 -28 10 0 25 -22 32 -50 7 -27 25 -50 40
-50 15 0 28 -9 28 -20 0 -11 14 -20 30 -20 17 0 30 10 30 22 0 13 15 17 33 9
19 -7 41 -2 49 12 8 13 46 25 84 25 39 1 66 8 62 15 -11 19 188 65 285 66 46
1 79 9 73 18 -6 9 11 14 37 11 26 -3 92 9 147 27 55 18 145 38 200 43 55 6
155 24 223 39 68 15 156 26 195 24 40 -2 72 2 72 8 0 7 16 13 35 14 19 1 98
12 175 24 77 11 158 18 180 15 22 -4 53 3 69 16 23 17 25 16 12 -6 -13 -20
-10 -24 9 -12 33 21 108 29 630 71 143 12 296 25 340 29 44 4 109 8 145 9 43
1 65 11 65 30 0 17 12 25 27 19 16 -6 40 2 56 18 15 15 43 25 61 23 21 -3 29
5 22 23 -5 15 1 28 14 28 13 0 50 27 81 61 87 93 198 73 178 -32 -12 -62 3
-107 32 -96 17 7 28 4 25 -6 -3 -9 2 -19 11 -21 9 -2 30 -20 46 -40 17 -20 24
-25 17 -11 -7 15 1 25 20 25 18 0 27 -9 20 -20 -7 -11 1 -14 19 -8 17 7 26 20
20 30 -6 10 -3 18 8 18 11 0 23 -11 27 -23 6 -17 26 -15 72 8 39 19 59 23 50
9 -8 -14 0 -13 20 3 18 15 29 36 23 45 -6 10 4 18 23 18 19 0 30 5 23 11 -6 6
20 62 57 124 88 145 94 289 18 422 -60 105 -55 118 111 262 308 268 295 719
-26 883 l-75 39 0 259 c0 234 13 300 49 242 69 -112 271 157 271 362 0 217
-33 236 -310 186 -210 -38 -236 -37 -264 7 -27 44 437 137 521 104 250 -97
163 -692 -110 -752 l-57 -12 0 -177 c0 -158 4 -179 39 -190 22 -7 80 -58 130
-113 248 -276 180 -719 -144 -944 l-82 -56 40 -68 c56 -94 70 -267 31 -374
-17 -47 -36 -113 -43 -146 -55 -275 -440 -377 -654 -174 -64 60 -74 65 -81 32
-14 -65 95 -207 159 -207 14 0 25 -9 25 -20 0 -11 17 -20 39 -20 51 0 71 -34
26 -46 -19 -5 27 -10 102 -12 114 -2 135 3 126 28 -7 16 -3 30 8 30 10 0 19
-9 19 -20 0 -40 65 -18 149 50 47 39 93 70 103 71 68 4 182 360 194 603 2 51
11 100 19 108 23 23 18 52 -7 37 -14 -9 -18 8 -11 50 11 71 49 126 75 110 10
-6 12 4 4 23 -10 27 -5 32 22 22 19 -8 30 -6 24 3 -6 9 13 50 41 91 28 41 64
117 80 168 17 52 35 108 41 124 15 44 13 184 -4 225 -8 20 -10 58 -5 85 6 30
1 44 -11 36 -12 -7 -16 4 -9 31 6 24 3 43 -6 43 -23 0 -81 111 -66 126 6 6 -8
21 -31 33 -23 12 -42 32 -42 43 0 12 -28 49 -61 82 -34 34 -57 74 -51 89 6 15
2 27 -9 27 -37 0 -18 36 61 118 44 45 80 86 80 91 0 18 95 149 103 142 4 -4 8
15 10 43 2 28 11 57 20 64 21 15 23 342 2 342 -8 0 -13 7 -11 15 5 20 -25 107
-47 133 -9 12 -36 47 -59 77 -45 61 -150 124 -165 100 -13 -21 -213 -5 -213
17 0 10 20 18 43 18 24 0 38 5 32 12 -6 6 24 86 68 177 155 324 102 661 -143
908 -110 110 -151 143 -179 143 -19 0 -29 28 -23 65 1 8 -17 15 -39 15 -25 0
-36 9 -28 22 9 14 -10 17 -59 10 -64 -10 -104 14 -52 31 47 16 -455 12 -507
-3z m530 -235 c434 -206 547 -716 235 -1055 -303 -328 -894 -271 -1050 102
-43 103 -35 151 12 73 51 -83 71 -85 28 -2 -76 148 -25 517 72 517 26 0 20
-144 -6 -163 -11 -7 -12 -24 -2 -40 24 -38 28 -79 6 -66 -10 6 -18 -42 -18
-109 0 -474 661 -588 862 -149 43 96 42 288 -3 304 -10 3 -19 19 -19 35 0 15
-10 28 -21 28 -12 0 -15 -11 -7 -25 8 -14 9 -20 3 -15 -6 6 -10 16 -8 24 2 8
-15 28 -37 45 -40 31 -40 31 0 19 22 -7 11 7 -25 30 -36 23 -65 51 -65 62 0
12 -24 30 -53 41 -29 11 -48 25 -41 31 42 42 -53 80 -97 39 -63 -59 -249 -120
-313 -104 -201 50 49 273 272 244 483 -64 681 -584 348 -917 -81 -81 -87 -91
-34 -60 510 296 262 1076 -342 1075 -494 0 -834 -568 -582 -969 l32 -50 -52
34 c-47 30 -55 30 -84 2 -42 -42 -99 -19 -90 38 4 28 24 49 54 56 l48 11 -54
24 c-217 100 -434 -141 -299 -333 109 -156 407 -77 407 109 0 65 4 64 108 -46
97 -101 104 -128 71 -279 -29 -137 -34 -141 -209 -186 -86 -22 -178 -54 -203
-70 -64 -42 -67 -40 -67 50 0 77 -2 80 -65 80 -90 0 -372 -51 -548 -100 -181
-49 -189 -49 -241 -1 -23 21 -47 33 -54 26 -7 -6 -12 -2 -12 9 0 12 -52 28
-115 35 -63 8 -158 28 -210 45 l-94 30 -157 -106 -157 -107 112 -47 c150 -63
198 -79 284 -93 108 -18 177 -80 177 -160 0 -125 -159 -162 -180 -41 -10 55
-26 66 -200 131 -256 97 -380 153 -380 173 0 9 95 77 210 152 246 160 274 207
57 95 -144 -74 -205 -87 -174 -37 7 12 5 17 -6 10 -56 -34 -100 126 -57 211 7
14 1 10 -15 -8 -24 -30 -27 -25 -26 43 1 42 8 72 17 66 8 -5 11 14 6 42 -5 29
-2 52 8 52 9 0 17 41 17 90 0 50 -9 85 -19 79 -10 -6 -18 -24 -18 -40 0 -16
-10 -29 -23 -29 -13 0 -18 -6 -11 -13 7 -7 -4 -36 -24 -65 -20 -28 -47 -88
-61 -132 -13 -44 -29 -93 -36 -110 -6 -16 -14 -48 -18 -70 -4 -22 -16 -81 -28
-131 -12 -50 -17 -156 -12 -236 9 -140 8 -145 -34 -139 -38 5 -44 20 -49 139
-15 333 148 711 432 1001 126 129 137 133 94 30 -222 -533 618 -992 889 -486
15 29 40 52 54 52 15 0 27 7 27 15 0 9 21 38 48 67 70 76 79 124 34 201 -21
37 -48 104 -60 149 -44 165 -165 286 -330 330 -166 45 -167 59 -2 52 140 -6
151 -4 86 14 -112 33 -94 58 77 106 l157 44 -130 -11 c-773 -64 -1390 -694
-1470 -1501 -7 -79 -24 -147 -37 -152 -13 -5 -107 -25 -209 -45 -263 -50 -322
-108 -264 -259 17 -46 12 -64 -40 -126 -75 -92 -75 -128 0 -191 58 -48 60 -57
60 -211 l0 -161 -76 -39 c-125 -64 -172 -319 -91 -489 53 -112 223 -173 302
-109 20 17 25 -75 25 -445 l0 -467 65 62 c162 154 1862 416 2977 458 395 15
413 10 302 -98 -72 -70 -184 -113 -184 -70 0 11 -19 -1 -42 -27 -37 -42 -40
-43 -30 -7 11 37 10 37 -15 6 -21 -28 -32 -30 -54 -10 -23 20 -23 18 -2 -10
23 -29 20 -33 -15 -31 -23 2 -42 11 -42 19 0 9 -10 16 -22 16 -31 0 -10 -50
24 -53 15 -1 38 -3 51 -5 34 -3 9 -75 -25 -75 -16 0 -26 10 -21 23 5 12 -9 34
-31 48 -23 14 -36 39 -31 59 6 23 -3 34 -27 34 -29 0 -31 -5 -12 -29 21 -24
18 -25 -21 -4 -38 20 -48 18 -57 -7 -9 -23 -21 -25 -50 -10 -28 15 -41 14 -49
-5 -10 -27 -205 -33 -246 -8 -13 8 -18 -3 -13 -28 4 -23 -1 -36 -11 -29 -34
20 -20 -16 16 -43 30 -23 31 -27 3 -27 -17 -1 -42 22 -55 50 -18 41 -18 49 2
37 14 -8 18 -7 9 3 -32 36 -69 24 -69 -23 0 -29 9 -42 23 -35 12 7 10 0 -4
-15 -28 -30 -66 4 -55 50 2 12 1 15 -4 7 -5 -8 -21 -15 -36 -15 -16 0 -23 -12
-16 -30 6 -16 2 -30 -9 -30 -29 0 -17 59 17 83 24 17 23 19 -4 10 -17 -5 -42
0 -53 11 -16 16 -18 9 -11 -21 9 -33 3 -43 -26 -43 -28 1 -30 5 -10 18 21 13
20 19 -5 28 -18 7 -29 3 -27 -9 3 -12 -17 -25 -44 -30 -48 -8 -86 -43 -71 -67
4 -7 -30 -14 -76 -16 -46 -3 -74 2 -62 11 12 8 27 29 33 45 9 23 12 22 13 -6
3 -54 71 -34 74 20 2 35 -5 41 -30 28 -17 -9 -61 -16 -97 -14 -36 1 -65 -7
-65 -18 0 -11 -10 -6 -22 10 -19 27 -20 27 -12 0 4 -16 25 -28 46 -25 36 6 36
5 2 -16 -20 -12 -49 -17 -65 -11 -16 6 -29 3 -29 -7 0 -9 -17 -13 -38 -7 -24
6 -34 22 -28 45 5 20 -3 43 -17 52 -15 8 -21 8 -13 0 14 -16 -35 -131 -56
-131 -6 0 -5 9 2 20 30 48 29 104 -1 80 -16 -14 -24 -33 -18 -42 6 -10 -25
-15 -70 -12 -85 7 -109 -14 -41 -36 22 -7 36 -20 30 -30 -16 -26 -107 26 -96
54 6 14 0 26 -12 26 -12 0 -22 -10 -22 -21 0 -12 -9 -16 -20 -9 -11 7 -20 3
-20 -8 0 -11 9 -25 20 -32 26 -16 26 -50 -1 -50 -12 0 -16 9 -9 20 7 11 3 20
-9 20 -11 0 -21 -7 -21 -16 0 -8 -18 -15 -39 -15 -22 0 -36 3 -31 7 4 5 -3 20
-16 33 -19 21 -29 19 -50 -7 -15 -17 -22 -22 -16 -9 12 23 -45 57 -64 37 -6
-5 -2 -10 8 -10 26 0 31 -76 6 -91 -25 -16 -81 30 -66 54 6 10 19 12 30 6 10
-6 13 -20 7 -30 -6 -11 -2 -19 10 -19 29 0 26 31 -6 58 -21 17 -33 16 -49 -3
-25 -31 -127 -43 -143 -18 -26 42 -102 -15 -92 -69 9 -52 8 -52 -27 -16 -20
21 -33 45 -28 53 4 8 -21 14 -58 12 -44 -2 -51 -5 -23 -11 43 -8 84 -66 46
-66 -10 0 -19 9 -19 20 0 11 -13 20 -28 20 -18 0 -25 -16 -20 -45 5 -26 3 -32
-5 -15 -34 74 -98 101 -141 58 -16 -16 -33 -15 -64 1 -23 12 -41 16 -40 7 6
-38 -4 -66 -23 -66 -12 0 -15 10 -7 23 9 14 5 18 -9 9 -32 -20 10 -98 43 -80
18 10 18 8 2 -10 -28 -31 -128 11 -128 54 0 25 -5 25 -34 1 -23 -18 -29 -19
-19 -2 34 56 -6 20 -45 -40 -28 -44 -41 -54 -42 -30 0 19 11 36 25 37 20 1 20
3 0 11 -14 6 -19 20 -12 32 8 13 4 15 -10 7 -13 -8 -18 -23 -12 -33 6 -11 -4
-19 -22 -19 -29 0 -30 -5 -7 -33 25 -29 23 -31 -20 -18 -30 10 -43 8 -34 -5
13 -22 -38 -84 -69 -84 -11 0 -19 213 -19 520 l0 520 -71 0 c-299 0 -407 625
-136 785 82 48 83 161 2 293 -57 93 -56 227 3 289 38 41 40 55 20 99 -71 156
43 276 302 318 l170 28 15 149 c119 1204 1555 1923 2460 1231 l92 -70 14 64
c87 403 620 645 1012 459z m-2212 -514 c322 -96 452 -466 246 -700 -303 -344
-817 -183 -821 259 -3 303 289 526 575 441z m1981 -49 c48 11 89 -26 64 -58
-20 -25 -20 -28 -1 -17 45 27 27 2 -91 -123 -83 -88 -131 -124 -167 -124 -57
0 -159 83 -118 96 21 7 21 12 0 25 -21 13 -21 22 -2 46 21 24 19 34 -11 51
-31 18 -32 24 -7 40 16 11 36 15 45 10 9 -6 16 -1 16 11 0 11 29 21 65 21 36
0 88 12 115 27 28 14 55 18 62 8 6 -9 20 -15 30 -13z m324 -167 c9 -46 -49
-174 -86 -188 -58 -22 -73 21 -38 104 53 129 108 166 124 84z m-186 -235 c37
-60 -73 -154 -152 -129 -83 26 -13 149 84 149 31 0 61 -9 68 -20z m-1160 -41
c0 -16 -16 -31 -35 -35 -34 -7 -49 36 -21 63 21 21 56 3 56 -28z m1237 -329
c15 -39 -57 -77 -119 -61 -61 15 -63 65 -3 77 87 17 111 14 122 -16z m-458
-83 c52 78 231 108 231 38 0 -55 -40 -85 -115 -85 -36 0 -70 -11 -75 -25 -5
-14 -18 -51 -30 -83 l-22 -59 -89 88 c-66 65 -89 103 -89 148 l0 60 73 -73 73
-73 43 64z m487 -70 c8 -41 -54 -63 -124 -46 -64 16 -68 63 -7 75 78 16 124 5
131 -29z m-216 -12 c0 -20 -20 -44 -45 -55 -60 -27 -70 -101 -16 -129 80 -43
46 -221 -42 -221 -74 0 -97 55 -97 231 l0 168 55 -11 c33 -6 71 1 95 20 51 39
50 39 50 -3z m700 -134 l0 -89 -85 -11 c-47 -6 -116 -13 -155 -16 l-70 -5 -5
-365 -6 -365 -69 -3 c-39 -2 -80 -4 -92 -5 -15 -1 -21 110 -19 361 l3 363 -81
-10 c-73 -10 -81 -7 -81 31 0 26 13 43 31 43 17 0 52 23 78 51 40 43 77 55
254 77 321 41 297 46 297 -57z m-595 35 c30 -17 -8 -46 -61 -46 -68 1 -113 29
-95 59 14 21 112 13 156 -13z m-2177 -65 c101 -23 180 -82 189 -140 24 -165
-135 -212 -198 -58 -36 86 -85 117 -221 141 -147 26 -158 31 -117 57 37 24
245 24 347 0z m892 -111 c0 -49 -7 -91 -15 -92 -8 -1 -118 -21 -245 -45 l-230
-43 -6 -78 c-6 -74 -5 -77 46 -64 59 15 430 92 442 92 4 0 8 -40 8 -89 l0 -88
-105 -21 c-58 -11 -168 -32 -245 -47 l-140 -26 -6 -75 c-4 -41 -2 -74 3 -74
10 0 383 75 448 90 42 10 45 5 45 -99 l0 -109 -75 -13 c-160 -27 -517 -92
-560 -102 l-45 -11 1 327 c0 256 7 335 30 366 16 21 29 68 29 103 0 71 -29 60
430 155 200 41 190 44 190 -57z m796 -3 l6 -83 -136 0 c-226 1 -386 -60 -386
-147 0 -49 71 -64 181 -39 243 57 372 -15 355 -196 -19 -198 -162 -299 -445
-317 -245 -15 -271 -5 -271 106 0 88 1 90 55 74 141 -39 430 10 468 80 40 75
-21 105 -155 78 -271 -54 -368 -8 -368 175 0 213 241 366 560 356 l130 -4 6
-83z m404 -427 l0 -300 -70 -3 c-38 -2 -81 -4 -93 -5 -17 -1 -24 78 -25 282
-2 275 -1 284 38 274 22 -5 58 4 80 20 67 51 70 41 70 -268z m-2511 186 c86
-41 87 -47 12 -89 -242 -138 -136 -518 131 -468 132 25 272 205 234 304 -6 16
9 50 33 75 23 26 50 73 58 104 l16 58 38 -59 c155 -236 -86 -626 -409 -665
-376 -44 -567 395 -298 686 92 100 90 100 185 54z m-541 -42 c129 -74 188
-298 121 -460 -71 -169 -188 -248 -455 -306 -101 -22 -200 -44 -219 -50 -33
-10 -35 18 -35 399 l0 409 145 23 c80 13 159 27 175 31 58 15 207 -11 268 -46z
m3579 -604 c245 -155 229 -436 -38 -670 -71 -62 -144 -139 -163 -171 -55 -93
-206 -89 -206 6 1 100 62 212 197 360 136 150 141 166 82 242 -56 71 -159 73
-223 3 l-47 -49 -104 33 c-119 38 -124 49 -56 149 111 164 379 210 558 97z
m-653 7 c4 -10 -25 -50 -64 -87 l-71 -69 -415 -16 c-228 -8 -586 -33 -796 -55
-210 -22 -387 -40 -395 -40 -20 0 -16 156 5 169 9 6 28 -2 41 -18 13 -16 37
-24 52 -18 16 6 29 0 29 -13 0 -20 7 -19 30 0 17 14 69 29 115 34 47 5 114 16
149 26 35 9 91 14 125 12 34 -2 61 1 61 9 0 17 65 11 98 -10 19 -12 24 -10 14
6 -18 29 -1 29 49 2 22 -11 39 -13 39 -3 0 10 14 17 30 17 17 0 30 -9 30 -21
0 -12 9 -8 20 8 14 22 19 23 20 4 0 -16 10 -20 25 -10 14 9 43 17 65 18 242
15 395 29 409 38 10 5 39 2 64 -7 42 -16 111 16 87 40 -4 4 34 6 85 5 52 -2
96 -11 99 -21z m-2565 -259 l-1 -118 -247 -51 -246 -50 -2 -487 -3 -488 -100
-26 c-55 -14 -111 -27 -125 -27 -19 -1 -25 110 -25 489 0 270 -3 490 -6 490
-3 0 -82 -22 -175 -50 -227 -66 -216 -70 -208 74 8 152 -28 134 479 242 732
157 660 157 659 2z m2320 -70 c37 -130 52 -133 90 -13 35 108 46 96 99 -100
66 -244 66 -244 133 -80 58 142 61 145 137 151 130 11 128 -6 -31 -374 -157
-364 -208 -421 -257 -291 -26 67 -25 115 0 99 22 -14 23 15 2 90 -12 44 -18
38 -61 -67 -54 -133 -61 -130 -111 47 -51 179 -56 180 -117 24 -77 -197 -90
-210 -181 -193 -66 12 -75 20 -67 62 9 43 2 40 -74 -30 -413 -381 -912 163
-535 581 243 269 606 185 674 -157 l22 -113 87 208 c138 334 140 336 190 156z
m-1209 -48 c103 -99 93 -279 -23 -403 l-41 -43 102 -151 c122 -181 124 -193
27 -193 -41 0 -95 -6 -119 -12 -34 -10 -52 1 -80 48 -20 34 -60 102 -90 152
-80 134 -116 110 -116 -81 0 -159 3 -155 -125 -176 l-75 -13 0 448 0 448 145
21 c224 33 326 21 395 -45z m-620 -429 c0 -241 -7 -443 -15 -448 -8 -5 -59
-16 -112 -24 l-97 -14 7 182 c8 207 23 195 -181 156 l-128 -24 4 -183 c5 -201
12 -190 -140 -217 l-71 -12 3 86 c1 48 5 246 6 441 4 390 -8 357 141 387 l67
13 -15 -175 -14 -175 47 13 c27 7 105 23 175 35 l126 23 -6 172 -6 173 70 12
c152 28 139 67 139 -421z m2467 -209 c237 -99 181 -432 -72 -432 -244 0 -314
316 -95 425 84 42 84 42 167 7z m-1029 -509 c-10 -3 -18 -15 -18 -25 0 -12 15
-11 38 1 43 23 79 -26 38 -51 -14 -9 -17 -5 -7 11 12 18 5 22 -23 13 -21 -7
-55 1 -77 18 -27 21 -30 29 -9 25 19 -3 28 8 24 32 -6 32 -2 33 23 10 16 -15
21 -30 11 -34z"/>
<path d="M2725 4884 c-62 -9 -56 -26 25 -81 38 -26 94 -85 125 -131 52 -78
131 -107 123 -45 -7 55 6 141 17 113 15 -38 70 -79 90 -67 8 5 15 2 15 -8 0
-9 -25 -28 -55 -40 l-55 -23 50 1 c85 2 103 -2 90 -23 -27 -44 15 -16 71 48
32 37 92 83 132 102 86 41 62 67 -55 58 -53 -4 -75 1 -66 16 8 12 2 17 -14 11
-15 -5 -26 -19 -24 -29 2 -11 -8 -19 -22 -19 -14 0 -25 11 -25 25 0 15 7 22
16 16 10 -6 17 -2 17 9 0 22 -81 46 -185 54 -54 5 -72 0 -62 -17 8 -13 -1 -11
-21 5 -30 25 -37 25 -53 0 -16 -25 -26 -15 -23 22 1 12 -42 13 -111 3z"/>
<path d="M3370 4683 c-44 -20 -92 -51 -107 -69 -19 -24 -3 -20 60 13 48 26
114 56 147 68 43 16 49 22 20 23 -22 1 -76 -15 -120 -35z"/>
<path d="M3451 4628 c-458 -167 -282 -955 185 -829 95 25 244 155 244 212 0
30 -15 23 -75 -36 -254 -247 -620 -61 -580 296 19 167 195 308 354 285 56 -8
61 -4 61 47 0 67 -55 74 -189 25z"/>
<path d="M3654 4527 c-8 -8 -14 -28 -14 -45 1 -28 3 -28 22 -2 17 24 20 21 12
-15 -6 -25 -3 -40 6 -35 9 6 21 -1 27 -15 7 -14 6 2 0 35 -14 68 -33 97 -53
77z"/>
<path d="M2867 4069 c-17 -44 25 -85 56 -54 25 25 9 85 -23 85 -12 0 -27 -14
-33 -31z"/>
<path d="M3054 4073 c-6 -15 -3 -39 7 -55 23 -37 69 7 52 51 -14 38 -45 40
-59 4z"/>
<path d="M2813 3926 c-73 -72 247 -122 344 -54 68 48 25 71 -69 39 -76 -27
-186 -19 -243 16 -11 6 -25 6 -32 -1z"/>
<path d="M2186 4542 c-234 -147 -142 -508 137 -535 183 -18 343 159 308 342
-13 70 -16 73 -49 43 -43 -39 -70 -40 -100 -5 -32 39 -6 93 45 93 l42 0 -44
44 c-63 63 -251 73 -339 18z m24 -132 c0 -60 -78 -54 -87 7 -5 38 2 45 40 40
31 -5 47 -20 47 -47z"/>
<path d="M2435 3463 c41 -42 78 -74 82 -71 22 16 -28 93 -77 118 -87 45 -87
37 -5 -47z"/>
<path d="M1095 3066 l-55 -9 0 -231 0 -230 75 13 c255 46 394 277 252 418 -53
53 -116 62 -272 39z"/>
<path d="M3312 2099 c-126 -110 -143 -283 -39 -387 136 -136 387 7 387 221 0
203 -198 297 -348 166z"/>
<path d="M2615 2106 c-28 -7 -35 -31 -35 -129 0 -105 4 -118 35 -109 19 5 60
16 90 23 31 8 69 33 85 56 80 114 -15 201 -175 159z"/>
</g>
</svg>
